# xmcd
#
# Track frame offsets:
# 150
# 18648
# 32493
# 43770
# 63206
# 76990
# 93942
# 106821
# 127007
# 137654
#
# Disc length: 1984 seconds
#
# Revision: 0
# Processed by: cddbd v1.5.2PL0 Copyright (c) Steve Scherf et al.
# Submitted via: Audion 3.0.2 (http://www.panic.com/audion/)
#
DISCID=7a07be0a
DTITLE=Etienne Daho - Mythomane (vinyle)
DYEAR=1900
DGENRE=
TTITLE0=Il ne dira pas
TTITLE1=Ton cinoche
TTITLE2=Mes copains
TTITLE3=On s'fait la gueule
TTITLE4=Va t'en
TTITLE5=Cowboy
TTITLE6=Encore cette chanson
TTITLE7=L'été
TTITLE8=Tu dors encore
TTITLE9=Mythomane
EXTD=
EXTT0=
EXTT1=
EXTT2=
EXTT3=
EXTT4=
EXTT5=
EXTT6=
EXTT7=
EXTT8=
EXTT9=
PLAYORDER=
